<svg xmlns="http://www.w3.org/2000/svg" viewBox="0 0 48 48" fill="none">
  <rect width="48" height="48" rx="12" fill="#3A7A9E"/>
  <path d="M24 8C18.5 8 14 12.5 14 18C14 26 24 38 24 38S34 26 34 18C34 12.5 29.5 8 24 8Z" fill="#478DB2"/>
  <circle cx="24" cy="18" r="4" fill="#fff"/>
  <path d="M10 14C10 14 12 10 16 8" stroke="#7CB8D4" stroke-width="1.5" stroke-linecap="round" fill="none"/>
  <path d="M8 18C8 18 10 12 16 9" stroke="#7CB8D4" stroke-width="1.5" stroke-linecap="round" fill="none" opacity="0.5"/>
  <path d="M38 14C38 14 36 10 32 8" stroke="#7CB8D4" stroke-width="1.5" stroke-linecap="round" fill="none"/>
  <path d="M40 18C40 18 38 12 32 9" stroke="#7CB8D4" stroke-width="1.5" stroke-linecap="round" fill="none" opacity="0.5"/>
</svg>
